<svg xmlns="http://www.w3.org/2000/svg" viewBox="0 0 200 200" width="200" height="200">
  <defs>
    <linearGradient id="gold" x1="0%" y1="0%" x2="100%" y2="100%">
      <stop offset="0%" stop-color="#C9A84C"/>
      <stop offset="50%" stop-color="#E8D48B"/>
      <stop offset="100%" stop-color="#B8922A"/>
    </linearGradient>
  </defs>

  <polygon 
    points="100,5 185,52.5 185,147.5 100,195 15,147.5 15,52.5" 
    fill="none" 
    stroke="url(#gold)" 
    stroke-width="3" opacity="0.85"/>

  <g transform="translate(52, 40)">
    <rect x="0" y="0" width="20" height="120" rx="3" fill="url(#gold)"/>
    <rect x="0" y="0" width="76" height="17" rx="3" fill="url(#gold)"/>
    <rect x="0" y="51.5" width="58" height="17" rx="3" fill="url(#gold)"/>
    <rect x="0" y="103" width="76" height="17" rx="3" fill="url(#gold)"/>
    <line x1="62" y1="45" x2="82" y2="72" stroke="#0A0A0A" stroke-width="5" stroke-linecap="round"/>
  </g>

  <circle cx="100" cy="5" r="4" fill="url(#gold)" opacity="0.5"/>
  <circle cx="185" cy="52.5" r="4" fill="url(#gold)" opacity="0.5"/>
  <circle cx="185" cy="147.5" r="4" fill="url(#gold)" opacity="0.5"/>
  <circle cx="100" cy="195" r="4" fill="url(#gold)" opacity="0.5"/>
  <circle cx="15" cy="147.5" r="4" fill="url(#gold)" opacity="0.5"/>
  <circle cx="15" cy="52.5" r="4" fill="url(#gold)" opacity="0.5"/>
</svg>