<svg width="273" height="321" viewBox="0 0 273 321" fill="none" xmlns="http://www.w3.org/2000/svg">
<path d="M133.635 319.212L107.96 302.918L239.504 220.637V97.4788L142.55 36.1615L171.374 19.3909L266.643 77.3591C268.996 78.7908 270.447 81.3322 270.484 84.0863L272.46 231.801C272.498 234.627 271.042 237.263 268.63 238.736L136.806 319.239C135.831 319.835 134.601 319.824 133.635 319.212Z" fill="#8668B5"/>
<path d="M139.551 2.47418L164.561 15.1983L28.3003 97.4788V220.637L127.351 281.431L100.099 298.201L2.42093 239.39C0.918642 238.485 0 236.86 0 235.106V85.5024C0 81.2354 2.26585 77.2894 5.95104 75.1385L129.976 2.75039C132.913 1.03609 136.52 0.932038 139.551 2.47418Z" fill="#8668B5"/>
<path d="M55.0283 109.008L137.833 59.221L208.834 101.378C214.957 105.014 215.426 113.703 209.728 117.976L194.433 129.448L137.833 95.3824L84.3768 127.351V153.555L55.0283 173.47V109.008Z" fill="#8668B5"/>
<path d="M90.6657 195.482L179.235 140.977L147.79 124.207L55.0283 180.283V210.156L133.116 259.419L216.354 206.718C218.833 205.149 218.835 201.534 216.358 199.962L194.433 186.048L133.116 223.782L90.6657 195.482Z" fill="#8668B5"/>
<path d="M217.493 124.207L194.433 137.309V178.187L217.493 190.765V124.207Z" fill="#D3AF37"/>
</svg>
