<svg width="847" height="369" viewBox="0 0 847 369" fill="none" xmlns="http://www.w3.org/2000/svg">
<path d="M244.974 227.739L290 257.947V105.316L244.974 136.337V227.739Z" fill="#48377C"/>
<path d="M0 90.3301L143.535 0L290 90.3301C275.354 100.043 244.974 122.487 244.974 122.487C244.974 124.818 177.71 82.5598 143.535 61.1914L49.798 122.383V180.66L0 212.713V90.3301Z" fill="#0C0916"/>
<path d="M216.768 154.435L164.04 122.383L0 228.739V284.103L143.535 368.605L290 273.904L244.974 244.592L143.535 305.957L54.1919 256.421L216.768 154.435Z" fill="#0C0916"/>
<path d="M394.466 221V113.438H440.876V121.628H406.296V160.212H433.96V169.312H406.296V212.81H440.876V221H394.466ZM465.773 221V113.438H477.057V212.81H507.087V221H465.773ZM528.904 221V113.438H540.37V221H528.904ZM580.861 221V121.628H562.843V113.438H610.709V121.628H592.327V221H580.861ZM633.305 221V113.438H644.771V221H633.305ZM702.916 223.184C699.155 223.184 695.636 222.881 692.36 222.274C689.084 221.667 686.172 220.515 683.624 218.816C681.198 217.117 679.256 214.63 677.8 211.354C676.466 207.957 675.798 203.467 675.798 197.886V113.438H687.264V200.252C687.264 204.62 687.992 207.896 689.448 210.08C690.904 212.264 692.785 213.781 695.09 214.63C697.517 215.358 700.126 215.722 702.916 215.722C705.586 215.722 708.134 215.358 710.56 214.63C712.987 213.781 714.928 212.264 716.384 210.08C717.84 207.896 718.568 204.62 718.568 200.252V113.438H729.852V197.886C729.852 203.467 729.124 207.957 727.668 211.354C726.334 214.63 724.453 217.117 722.026 218.816C719.6 220.515 716.688 221.667 713.29 222.274C710.014 222.881 706.556 223.184 702.916 223.184ZM760.99 221V113.438H774.458L797.754 200.98L821.596 113.438H834.518V221H824.326V134.004L801.94 221H793.75L771.364 134.004V221H760.99Z" fill="#0C0916"/>
<path d="M394.725 289V244.675H413.85V248.05H399.6V263.95H411V267.7H399.6V285.625H413.85V289H394.725ZM420.36 289V244.675H434.31C436.81 244.675 438.835 245.275 440.385 246.475C441.935 247.625 442.71 249.475 442.71 252.025V259.225C442.71 261.775 441.935 263.75 440.385 265.15C438.885 266.55 436.835 267.3 434.235 267.4V267.325C435.835 267.425 437.035 268 437.835 269.05C438.635 270.05 439.335 271.625 439.935 273.775L444.51 289H439.26L435.21 274.075C434.81 272.675 434.285 271.425 433.635 270.325C433.035 269.175 432.035 268.6 430.635 268.6H425.235V289H420.36ZM425.235 265.225H431.835C434.135 265.225 435.735 264.7 436.635 263.65C437.585 262.55 438.06 260.95 438.06 258.85V252.85C438.06 251 437.61 249.65 436.71 248.8C435.86 247.9 434.535 247.45 432.735 247.45H425.235V265.225ZM451.414 289V244.675H465.139C467.689 244.675 469.739 245.275 471.289 246.475C472.839 247.625 473.614 249.475 473.614 252.025V260.2C473.614 261.9 473.364 263.5 472.864 265C472.364 266.45 471.439 267.625 470.089 268.525C468.739 269.425 466.789 269.875 464.239 269.875H456.289V289H451.414ZM456.289 267.1H462.814C464.814 267.1 466.314 266.5 467.314 265.3C468.364 264.05 468.889 262.15 468.889 259.6V253.825C468.889 251.625 468.414 250.025 467.464 249.025C466.514 247.975 465.364 247.45 464.014 247.45H456.289V267.1Z" fill="#0C0916"/>
</svg>
