<svg width="440" height="673" viewBox="0 0 440 673" fill="none" xmlns="http://www.w3.org/2000/svg">
<path d="M139.229 305.061L183.03 249.413L256.523 154.618C260.95 148.908 269.786 149.633 273.223 155.989L295.327 196.867L310.075 224.004C313.487 230.282 319.988 234.263 327.131 234.448L383.465 235.902C387.313 236.001 389.825 231.898 387.987 228.516L339.462 139.236L276.087 26.7637C272.479 20.3608 263.428 19.9067 259.198 25.9163L176.314 143.652C176.313 143.654 176.313 143.655 176.313 143.657C176.314 143.658 176.314 143.66 176.313 143.661L86.8183 264.446L50.8176 310.181C44.9501 317.635 47.3886 328.596 55.863 332.859L100.252 355.189L169.524 393.225C178.386 398.09 189.485 395.578 195.387 387.37L210.217 366.75C217.497 356.626 213.839 342.38 202.58 337.017L139.697 307.063C139.266 306.858 138.98 306.435 138.95 305.958C138.929 305.635 139.029 305.316 139.229 305.061Z" fill="#0033FF"/>
<path d="M316.476 382.234L269.23 434.989L189.867 524.927C185.086 530.345 176.315 529.06 173.288 522.499L153.824 480.3L140.829 452.281C137.822 445.799 131.586 441.413 124.47 440.776L68.3423 435.748C64.5085 435.405 61.7407 439.34 63.3604 442.832L106.12 535.013L162.226 651.282C165.42 657.901 174.424 658.928 179.027 653.2L269.219 540.963C269.22 540.962 269.22 540.96 269.219 540.959C269.219 540.957 269.219 540.956 269.22 540.954L366.202 426.095L405.034 382.738C411.363 375.671 409.625 364.578 401.439 359.785L358.557 334.682L291.839 292.325C283.304 286.907 272.068 288.71 265.656 296.526L249.548 316.163C241.639 325.805 244.386 340.254 255.281 346.321L316.136 380.207C316.553 380.439 316.812 380.879 316.812 381.357C316.812 381.68 316.692 381.993 316.476 382.234Z" fill="#272727"/>
</svg>
