<svg width="440" height="673" viewBox="0 0 440 673" fill="none" xmlns="http://www.w3.org/2000/svg">
<path d="M300.115 367.731L256.314 423.379L192.222 506.048C183.368 517.469 165.696 516.018 158.823 503.307L144.017 475.926L129.269 448.788C125.857 442.51 119.355 438.53 112.212 438.345L81.8531 437.561C66.4616 437.164 56.4122 453.578 63.7647 467.105L99.8822 533.557L155.483 632.233C162.699 645.039 180.8 645.947 189.262 633.928L263.03 529.141C263.031 529.139 263.031 529.138 263.03 529.136C263.03 529.135 263.03 529.133 263.031 529.132L352.525 408.347L384.741 367.421C392.564 357.482 389.313 342.868 378.014 337.184L339.092 317.603L269.819 279.568C260.958 274.703 249.859 277.215 243.956 285.422L229.127 306.043C221.846 316.167 225.505 330.413 236.763 335.776L299.647 365.73C300.078 365.935 300.364 366.358 300.394 366.834C300.414 367.158 300.315 367.477 300.115 367.731Z" fill="#0033FF"/>
<path d="M122.868 290.559L170.113 237.804L239.325 159.371C248.886 148.535 266.429 151.105 272.482 164.227L285.52 192.493L298.515 220.512C301.521 226.994 307.757 231.379 314.874 232.017L345.122 234.726C360.458 236.1 371.529 220.357 365.05 206.39L333.224 137.78L284 35.7728C277.612 22.5347 259.605 20.4791 250.397 31.9369L170.125 131.829C170.124 131.831 170.124 131.832 170.124 131.834C170.125 131.835 170.125 131.837 170.123 131.838L73.1413 246.698L38.3926 285.496C29.9541 294.918 32.2711 309.709 43.1866 316.099L80.7865 338.111L147.505 380.467C156.04 385.886 167.276 384.083 173.687 376.267L189.796 356.63C197.705 346.988 194.958 332.538 184.062 326.472L123.208 292.586C122.791 292.354 122.532 291.914 122.532 291.436C122.532 291.112 122.652 290.8 122.868 290.559Z" fill="white"/>
</svg>
